<?xml version="1.0" encoding="utf-8"?>
<!-- Generator: Adobe Illustrator 25.0.0, SVG Export Plug-In . SVG Version: 6.00 Build 0)  -->
<svg version="1.1" id="Group_468" xmlns="http://www.w3.org/2000/svg" xmlns:xlink="http://www.w3.org/1999/xlink" x="0px" y="0px"
	 viewBox="0 0 634.7 567.4" style="enable-background:new 0 0 634.7 567.4;" xml:space="preserve">
<style type="text/css">
	.st0{fill:#73C0FF;}
	.st1{fill:#4DA8F2;}
	.st2{fill:#B5DEFF;}
	.st3{fill:#FFFFFF;}
	.st4{fill:url(#SVGID_1_);}
	.st5{fill:#DFE1E8;}
	.st6{fill:#EEF0F7;}
	.st7{fill:#3C4145;}
	.st8{fill:#EEA886;}
	.st9{fill:#E55353;}
	.st10{fill:#A77860;}
	.st11{fill:#BD4444;}
	.st12{fill:#323657;}
	.st13{fill:#706865;}
	.st14{fill:#B59074;}
	.st15{fill:#918783;}
	.st16{fill:#1D3B54;}
	.st17{fill:#CF8C6C;}
	.st18{fill:#EB4747;}
	.st19{fill:#DB9C7C;}
	.st20{fill:#152C3D;}
	.st21{fill:#EDDAD3;}
	.st22{fill:#BFB2AC;}
	.st23{fill:#D9C7C1;}
	.st24{fill:#EEA987;}
	.st25{fill:#E8734D;}
	.st26{fill:#C78D71;}
	.st27{fill:#5073AB;}
	.st28{fill:#F5F7FF;}
	.st29{fill:#78C2FF;}
	.st30{fill:#1A598C;}
	.st31{fill:#2273B5;}
	.st32{fill:#F3F3F3;}
	.st33{fill:#1D2033;}
	.st34{fill:#50558A;}
	.st35{fill:#292C47;}
	.st36{fill:#3A4066;}
	.st37{fill:#E2D2CA;}
	.st38{fill:#CCBDB7;}
	.st39{fill:#4667A8;}
	.st40{fill:#FFC05C;}
	.st41{fill:#424773;}
	.st42{fill:#3A3F47;}
	.st43{fill:#5E5854;}
	.st44{fill:#5F8BE3;}
	.st45{fill:#CECFD6;}
	.st46{fill:#5C5552;}
	.st47{fill:#2E436E;}
	.st48{fill:#949494;}
</style>
<g>
	<g>
		<path class="st0" d="M551.3,119.7c-0.9-3.4-2.2-6.6-4-9.6l4.1-6.1l-5.6-5.6l-5.6-5.6l-6.1,4.1c-3-1.7-6.2-3.1-9.6-4l-1.4-7.2h-8
			h-8l-1.4,7.2c-3.4,0.9-6.6,2.2-9.6,4l-6.1-4.1l-5.6,5.6l-5.6,5.6l4.1,6.1c-1.7,3-3.1,6.2-4,9.6l-7.2,1.4v8v8l7.2,1.4
			c0.9,3.4,2.2,6.6,4,9.6l-4.1,6.1l5.6,5.6l5.6,5.6l6.1-4.1c3,1.7,6.2,3.1,9.6,4l1.4,7.2h8h8l1.4-7.2c3.4-0.9,6.6-2.2,9.6-4l6.1,4.1
			l5.6-5.6l5.6-5.6l-4.1-6.1c1.7-3,3.1-6.2,4-9.6l7.2-1.4v-8v-8L551.3,119.7z M515,157c-15.4,0-27.9-12.5-27.9-27.9
			c0-15.4,12.5-27.9,27.9-27.9c15.4,0,27.9,12.5,27.9,27.9C542.9,144.5,530.4,157,515,157z"/>
	</g>
	<g>
		<path class="st0" d="M562.2,187.4c-0.4-1.6-1-3-1.8-4.4l1.9-2.8l-2.6-2.6l-2.6-2.6l-2.8,1.9c-1.4-0.8-2.8-1.4-4.4-1.8l-0.7-3.3
			h-3.6h-3.6l-0.7,3.3c-1.6,0.4-3,1-4.4,1.8L534,175l-2.6,2.6l-2.6,2.6l1.9,2.8c-0.8,1.4-1.4,2.8-1.8,4.4l-3.3,0.7v3.6v3.6l3.3,0.7
			c0.4,1.6,1,3,1.8,4.4l-1.9,2.8l2.6,2.6l2.6,2.6l2.8-1.9c1.4,0.8,2.8,1.4,4.4,1.8l0.7,3.3h3.6h3.6l0.7-3.3c1.6-0.4,3-1,4.4-1.8
			l2.8,1.9l2.6-2.6l2.6-2.6l-1.9-2.8c0.8-1.4,1.4-2.8,1.8-4.4l3.3-0.7v-3.6V188L562.2,187.4z M545.6,204.5
			c-7.1,0-12.8-5.7-12.8-12.8c0-7.1,5.7-12.8,12.8-12.8c7.1,0,12.8,5.7,12.8,12.8C558.3,198.7,552.6,204.5,545.6,204.5z"/>
	</g>
	<g>
		
			<rect x="330.9" y="322" transform="matrix(-1 -1.224647e-16 1.224647e-16 -1 700.9689 762.9783)" class="st1" width="39.2" height="118.9"/>
	</g>
	<g>
		<path class="st2" d="M198.6,379.3h303.7c9.5,0,17.2-7.7,17.2-17.2V158c0-9.5-7.7-17.2-17.2-17.2H198.6c-9.5,0-17.2,7.7-17.2,17.2
			v204.1C181.4,371.6,189.1,379.3,198.6,379.3z"/>
	</g>
	<g>
		
			<rect x="194.7" y="115.4" transform="matrix(-1 -1.224647e-16 1.224647e-16 -1 700.969 457.3368)" class="st3" width="311.6" height="226.5"/>
	</g>
	<g>
		<linearGradient id="SVGID_1_" gradientUnits="userSpaceOnUse" x1="194.668" y1="129.0829" x2="506.301" y2="129.0829">
			<stop  offset="0" style="stop-color:#40D5E6"/>
			<stop  offset="1" style="stop-color:#5577FF"/>
		</linearGradient>
		<polygon class="st4" points="194.7,142.8 506.3,142.8 506.3,115.4 194.7,115.4 		"/>
	</g>
	<g>
		<path class="st1" d="M339.6,359c0,6,4.9,10.9,10.9,10.9c6,0,10.9-4.9,10.9-10.9c0-6-4.9-10.9-10.9-10.9
			C344.5,348.1,339.6,353,339.6,359z"/>
	</g>
	<g>
		<g>
			<g>
				<path class="st5" d="M299.9,170.3h93.1c2.1,0,3.8-1.7,3.8-3.8V166c0-2.1-1.7-3.8-3.8-3.8h-93.1c-2.1,0-3.8,1.7-3.8,3.8v0.5
					C296.1,168.6,297.8,170.3,299.9,170.3z"/>
			</g>
		</g>
	</g>
	<g>
		<g>
			<g>
				<path class="st5" d="M299.9,185h93.1c2.1,0,3.8-1.7,3.8-3.8v-0.5c0-2.1-1.7-3.8-3.8-3.8h-93.1c-2.1,0-3.8,1.7-3.8,3.8v0.5
					C296.1,183.3,297.8,185,299.9,185z"/>
			</g>
		</g>
	</g>
	<g>
		<g>
			<g>
				<path class="st5" d="M299.9,199.6h93.1c2.1,0,3.8-1.7,3.8-3.8v-0.5c0-2.1-1.7-3.8-3.8-3.8h-93.1c-2.1,0-3.8,1.7-3.8,3.8v0.5
					C296.1,197.9,297.8,199.6,299.9,199.6z"/>
			</g>
		</g>
	</g>
	<g>
		<g>
			<g>
				<g>
					<path class="st5" d="M343.6,326H226.8c-9.7,0-17.7-7.9-17.7-17.7v-71.1c0-9.7,7.9-17.7,17.7-17.7h116.8
						c9.7,0,17.7,7.9,17.7,17.7v71.1C361.2,318.1,353.3,326,343.6,326z M226.8,221.8c-8.5,0-15.5,6.9-15.5,15.5v71.1
						c0,8.5,6.9,15.5,15.5,15.5h116.8c8.5,0,15.5-6.9,15.5-15.5v-71.1c0-8.5-6.9-15.5-15.5-15.5H226.8z"/>
				</g>
			</g>
		</g>
	</g>
	<g>
		<g>
			<g>
				<path class="st5" d="M236,246.4h98.3c4.3,0,7.8-3.5,7.8-7.8v-1.5c0-4.3-3.5-7.8-7.8-7.8H236c-4.3,0-7.8,3.5-7.8,7.8v1.5
					C228.2,242.9,231.7,246.4,236,246.4z"/>
			</g>
		</g>
	</g>
	<rect x="262.4" y="436.5" class="st2" width="176.2" height="9"/>
	<g>
		<path class="st6" d="M471.3,243c0,9.3-5,17.5-12.6,21.9c-1.5,0.9-3.1,1.6-4.8,2.2c-0.2,0.1-0.3,0.1-0.5,0.1
			c-2.4,0.7-4.9,1.1-7.5,1.1c-4,0-7.9-0.9-11.3-2.6c-8.3-4.2-14.1-12.8-14.1-22.7c0-14,11.4-25.4,25.4-25.4
			C459.9,217.6,471.3,228.9,471.3,243z"/>
		<g>
			<path class="st7" d="M439.8,240.3c0,0-1.7-11.2,7.5-11c9.3,0.2,9.2,5.7,9,11.2c-0.2,5.5-3.7,5.1,0.3,12.7c4,7.6-3.5,7.6-3.5,7.6
				l-5.8-8L439.8,240.3z"/>
		</g>
		<g>
			<path class="st8" d="M446.4,230.4c0,0-6.3,1-6.5,9.9c-0.2,8.9,1.7,10.8,7.2,9c5.5-1.9,7.2-11.2,7.4-12.7
				C454.5,235.2,454.8,229.3,446.4,230.4z"/>
		</g>
		<g>
			<path class="st9" d="M457.4,261.4c0,2.7-1.4,4.5-3.5,5.6c-0.2,0.1-0.3,0.1-0.5,0.1c-2.4,0.7-4.9,1.1-7.5,1.1
				c-4,0-7.9-0.9-11.3-2.6c-0.8-1.5,0.3-3.7,2.6-7c1.5-2.3,3.1-4.6,5.6-5.7c3.8-0.6,7.9-0.6,10.7,1
				C455.9,255.2,457.4,257.5,457.4,261.4z"/>
		</g>
		<g>
			<path class="st9" d="M438.4,258.5l-2.9,4.6c0,0,0.2-0.7,0.5-2.7c0.1-0.4,0.1-0.8,0.2-1.3c0-0.1,0.1-0.3,0.1-0.4v0
				c1.2-2.9,5.1-5,5.2-5L438.4,258.5z"/>
		</g>
		<g>
			<path class="st8" d="M458.7,264.8c-1.5,0.9-3.1,1.6-4.8,2.2c-0.2,0.1-0.3,0.1-0.5,0.1c-0.6-1.7-1.2-3.1-1.3-3.5
				c0-0.1-0.1-0.3-0.2-0.6c-0.5-1.3-1.7-4.1-1.7-6.3c0-1.4,0.5-2.6,1.9-2.9c0.6-0.1,1.1-0.1,1.5-0.1c1.6,0.3,2.5,1.7,3,3
				c0,0,0,0,0,0.1c0.4,1.1,0.6,2,0.6,2s0,0.1,0.1,0.3c0.1,0.4,0.3,1,0.5,1.9C458,262.2,458.4,263.4,458.7,264.8z"/>
		</g>
		<g>
			<path class="st8" d="M450.6,245.2c-0.5,1-1.1,7.4-1.1,7.4s-7.7,2.9-6.9,1.3c0.4-0.7,0.5-1.7,0.5-2.5c0-0.7,0-1.2-0.1-1.6
				c0-0.2,0-0.3,0-0.3S451.1,244.2,450.6,245.2z"/>
		</g>
		<g>
			<path class="st7" d="M443.8,236.8c0,0,3.2,5.3,6.2,7.3c2.9,2.1,1.4,3.7,1.4,3.7s7.7-16.1,0.4-17.2c-7.3-1.1-11.7-1.2-12,9.7
				C439.8,240.3,443.1,236.7,443.8,236.8z"/>
		</g>
		<g>
			<path class="st10" d="M447.3,249.1c-1.2,1.7-4.3,2.2-4.3,2.2s0,0,0,0c0-0.7,0-1.2-0.1-1.6C444.9,250.2,447.3,249.1,447.3,249.1z"
				/>
		</g>
		<path class="st11" d="M436.4,258.6C436.4,258.6,436.4,258.6,436.4,258.6c0,0-0.2,0.3-0.3,1.7l1.1-1.7c0,0,2-2.9,2.7-3.7
			c0.7-0.8,1.7-1.4,1.7-1.4S437.6,255.5,436.4,258.6z"/>
		<path class="st9" d="M451.7,263c0,0,4.9-1.9,6.4-2c0,0-1-7.9-5.8-7.1S451.7,263,451.7,263z"/>
		<path class="st8" d="M442.9,252.9c0,0-3.6,5.6-2.4,6.1c1.2,0.5,7.9-0.6,10.7-5.9C451.2,253,446.9,250.9,442.9,252.9z"/>
	</g>
	
		<rect x="136.6" y="375.5" transform="matrix(1 -7.578531e-03 7.578531e-03 1 -2.8546 1.1959)" class="st12" width="39.5" height="3.6"/>
	
		<rect x="160.4" y="357.7" transform="matrix(0.2925 -0.9563 0.9563 0.2925 -216.2781 426.6859)" class="st12" width="39.5" height="3.6"/>
	<g>
		<rect x="244.1" y="383.6" class="st13" width="3.1" height="95"/>
	</g>
	<g>
		
			<rect x="128.4" y="378.2" transform="matrix(-1 -1.224647e-16 1.224647e-16 -1 392.2846 761.8802)" class="st14" width="135.5" height="5.4"/>
	</g>
	<g>
		
			<rect x="145.7" y="383.6" transform="matrix(-1 -1.224647e-16 1.224647e-16 -1 294.5278 862.2767)" class="st13" width="3.1" height="95"/>
	</g>
	<rect x="83.8" y="416.3" class="st15" width="3.7" height="46.8"/>
	<path class="st16" d="M132.2,457.5c0,0,0,2.1,0.7,4.5c0.5,1.8,1.5,8.6,2.7,9.6c1.3,1,5.3,3.5,4.7,6.1c-0.6,2.6-1.1,4.4-5.5,2.9
		c-4.4-1.5-7.3-2.4-8.2-6.3c-0.8-3.9-3.2-7.4-3.2-7.4l-3.2,7.9l-1.7-0.7c0,0,2.5-8.5,2.3-9.3c-0.2-0.8,1.2-7.5,6.5-9.2
		C132.7,453.9,132.2,457.5,132.2,457.5z"/>
	<path class="st16" d="M161.5,460c0,0,0.8,1.9,2.3,3.9c1.1,1.5,4.6,7.4,6.1,7.8c1.5,0.4,6.2,1.3,6.7,3.9c0.4,2.6,0.6,4.5-4,4.7
		c-4.7,0.2-7.7,0.5-9.9-2.8c-2.2-3.3-5.8-5.6-5.8-5.6v8.5h-1.8c0,0-0.8-8.9-1.3-9.5c-0.5-0.6-1.7-7.4,2.6-11
		C160.6,456.5,161.5,460,161.5,460z"/>
	<path class="st8" d="M114.2,344.3c0,0,1-3.7,1.1-4.1c0.1-0.5,1.1-1.4,2.3-2.4c1.2-1,3.3-1.8,3.6-1.7c0.3,0.1,0.6,0,1,0.6
		c0.4,0.5,0.5,1.2,0.5,1.2s0.8,0.4,0.9,1.3c0,0,0.8,0.4,0.6,1.4c0,0,0.7,0.5,0.6,1.2c0,0-1,1-1.2,1.4c-0.3,0.5-2.4,2.3-4.8,3.7
		C118.7,346.9,115.7,349.1,114.2,344.3z"/>
	<path class="st17" d="M118.7,341.4c0,0,0.4,1.5,0.4,2c-0.1,0.5,3.5,0.6,3.5,0.6S120.6,340.9,118.7,341.4z"/>
	<path class="st16" d="M78,350.6c1.5-2.4,3.4-3.4,9.6,0.9c6.2,4.3,4.7,3.4,6.2,4.8c1.5,1.4,8,4.8,8,4.8s3.8-3.8,5.6-6.5
		c2.1-3,6.3-11.1,6.3-11.1l6,4.5c0,0-11.7,21.1-14.1,22.7c-2.4,1.6-9.8-1.1-13.6-2.7c-3.8-1.6-7.9-3.7-9.6-4.1
		C80.7,363.4,74.1,356.8,78,350.6z"/>
	
		<rect x="114.3" y="332.2" transform="matrix(0.2143 -0.9768 0.9768 0.2143 -229.9403 379.7025)" class="st18" width="13.6" height="1.1"/>
	<path class="st19" d="M120.9,336.3c0,0-3,2.6-2.7,3.1c0.4,0.5,0.8,0.5,0.8,0.5l-0.8,1.6c0,0,0.1,1.4,1.6,0.9c0,0,0,1.3,1.3,0.6
		c0,0,0.4,0.9,1,0.7c0.7-0.2,2.6-1.9,2.6-1.9s0.2-0.5-0.6-1.2c0,0,0.2-0.9-0.6-1.4c0,0,0-0.8-0.9-1.3c0,0,0-1.7-1.5-1.8
		C121.2,336,121,336.2,120.9,336.3z"/>
	<path class="st8" d="M115.4,340.2c0,0,2-1.8,3.6-2.3c0.3-0.1,0.7-0.2,1,0.1c0.2,0.3,0.1,1-0.7,1.8c-0.8,0.8-1.5,2.3-1.5,2.3
		S116.6,342.7,115.4,340.2z"/>
	<path class="st20" d="M106.8,363.5c0,0,1.2-4.4-0.2-7.8c0,0,0.5,3.5-1,6.1C104.5,363.5,106.8,363.5,106.8,363.5z"/>
	<path class="st21" d="M128.9,364.1c0,0,3.3-24.2,9-34.8h-8.4c0,0-9.4,16.5-7.6,33.2L128.9,364.1z"/>
	<path class="st8" d="M131,346c0,0,1-1.8,1.2-2.4c0.2-0.6,1.2,0.4,1,1.2C133,345.6,131,346,131,346z"/>
	<path class="st8" d="M138.4,350.1c0,0-0.3,0.9-0.5,1.2c0,0-0.6,0.6-1,1c-0.1,0.1-0.2,0.3-0.3,0.3c-0.3,0.3-0.7,1.2-1.5,1.9
		c-0.8,0.7-4,2.8-4,2.8l-2.3-2.4l-1.8-1.9c0,0,1.5-5.7,2.2-6.5c0.1-0.1,0.1-0.1,0.2-0.2c0.7-0.5,1.4-0.7,1.8-0.9
		c0.1-0.1,1.6-0.9,2-0.7c0.6,0.2,1,0.7,1.1,1.1c0,0,1.2,0.5,1.6,1.3c0,0,1.2,0.5,1.4,1.6C137.3,348.7,138.4,349.3,138.4,350.1z"/>
	<path class="st8" d="M153.2,412.6c0,0-5.5,12.5-9.5,21.4c-0.7,1.5-1.3,2.9-1.8,4.1c-0.6,1.4-1.2,2.6-1.5,3.4
		c-2.5,5.7-8.7,18-8.7,18s-4.7,0.2-4.9-3.8c0,0,4.5-8.6,4.5-14.6c0-6,0.8-23.8,6.6-27.6C144.8,408.9,149.3,408,153.2,412.6z"/>
	<path class="st8" d="M102,388.9c0,0,1.2,1.2,2.2,1.4c1,0.3,17.5,1.5,25.2,4c7.6,2.5,17.8,4.1,19.7,6.3c1.9,2.2,5,14,4.9,16.3
		c-0.1,2.2,6.7,40.1,7.6,43.1c0.4,1.6-6.2,1-6.2,1s-9.4-22.4-11.4-26.5c-3.7-7.6-3.9-16.9-5.2-18.3c-1.3-1.4-16.4-4.7-25-4.7
		s-27.9,0.7-30-0.4c-2.1-1.2-15-9.7-9.6-21.1C79.5,378.5,102,388.9,102,388.9z"/>
	<path class="st16" d="M139.3,397.1l-13.7,26.3c0,0-4.1-9.8-11.3-11.5c-7.2-1.7-35.9-0.8-35.9-0.8s-13.2-16.7-1.9-25.4
		c11.3-8.7,24.5,1.4,24.5,1.4s2.7,2.9,4,3C114.6,390.7,124.8,392.4,139.3,397.1z"/>
	<path class="st8" d="M170,471.8c0,0-4.2,1-5.8,0c-1.6-1-7-10.2-8.8-10.8c0,0,1.7-3.5,6.2-1C161.5,460,168.8,470.2,170,471.8z"/>
	<path class="st8" d="M135.6,471.6c0,0-4.3-0.6-5.3-2.2c-1.1-1.6-2.7-12.1-4.2-13.3c0,0,2.9-2.6,6.1,1.4
		C132.2,457.5,135.1,469.7,135.6,471.6z"/>
	<path class="st8" d="M92.1,306.2c3.3-0.2,10.6,1.5,11.7,10.2c0,0-0.3,2.3-0.8,4.2c-0.6,1.8,1.1,7.3,0.7,7.6
		c-0.4,0.3-2.2,0.6-2.2,0.6s-1.9,5.9-4,5.9c-2.1-0.1-10-1.7-13.7-9.1C80,318.2,78.9,306.9,92.1,306.2z"/>
	<path class="st8" d="M94.6,332c0,0-0.3,0.8-0.5,2.1c-0.1,0.6-0.3,1.4-0.4,2.2c-0.4,2.2-0.6,4.7,0,6.4c0,0-4.6,1.6-8.3-4.9
		c0,0,1.6-7-0.5-11.3C82.8,322.1,94.6,332,94.6,332z"/>
	<path class="st16" d="M103.8,316.4c0,0-5,4.5-10.4,4.2c-5.4-0.4-8.9,6.4-8.9,6.4s-8.1-10.1-1.6-18.3
		C89.5,300.5,105,306.3,103.8,316.4z"/>
	<path class="st8" d="M91,320.5c0-1-1.2-2.6-2.8-1.2c-1.7,1.4,0.6,6.3,2,5.8C91.5,324.7,91,321.6,91,320.5z"/>
	<path class="st10" d="M94.1,334c-0.1,0.6-0.3,1.4-0.4,2.2c-4.3-2.7-6.4-6-6.4-6C89.6,332.4,94.1,334,94.1,334z"/>
	<path class="st16" d="M106.6,358.9c-1,4.5-3.5,4.7-3.4,8.1c0.2,3.3,1.1,3.6-0.6,8.9c-0.3,1-0.6,2-0.8,3.1c0,0.1,0,0.3-0.1,0.4
		c-0.1,0.6-0.2,1.2-0.3,1.8c-0.2,1.1-0.3,2.2-0.3,3.2c-0.2,2.6,1.7,4.6,1.7,4.6S86,399,74.5,397.6c0,0,3-12.6,4.6-16.9
		c1.6-4.3,1.1-24.3-0.1-28.5c-1.8-6.3,1.8-15.8,6.7-17l7.6,3.5c0,0,7.6,9.1,9.3,10.5C104.3,350.5,107.6,354.4,106.6,358.9z"/>
	<path class="st16" d="M81.6,340.5c2.1-1.8,5.2-4.8,9.7,1.2c4.5,6,7.8,9.9,8.8,11.7c1,1.8,9.5,14,9.5,14s4.5-4.2,7.1-6.1
		c2.9-2.2,10.8-10.5,10.8-10.5l5.2,5.8c0,0-18.1,20.1-21,20.8c-2.8,0.7-10.7-6.4-13.8-9.1c-3.1-2.7-11.8-12.7-13.4-13.7
		C83,353.7,76,345.2,81.6,340.5z"/>
	<path class="st10" d="M143.7,434c-0.7,1.5-1.3,2.9-1.8,4.1c-2-6.5-1.9-17.5-1.9-17.5C141.3,428.2,143.7,433.9,143.7,434z"/>
	<rect x="56" y="411.2" class="st2" width="58.3" height="6.4"/>
	<path class="st2" d="M86.4,390.7c0,0-1.5,5.9,5.5,7.3c6.9,1.4,15.4,3.1,15.4,13.8h-24L86.4,390.7z"/>
	<polygon class="st8" points="121.9,326 122.9,324.2 123.1,326.3 	"/>
	<path class="st2" d="M56,417.6L35.7,332c0,0,36.8-5.8,41.2,10.8c4.4,16.5,11.6,65.7,20.4,68.7C106.1,414.5,56,417.6,56,417.6z"/>
	<path class="st20" d="M103.4,373c0,0-0.4,1.6-0.8,2.9l-9-11.6L103.4,373z"/>
	<path class="st16" d="M81,319.7c0,0,3.5,9.4,2.6,11.9c0,0,5.5-2.4,4.5-8.5C87,317,81,319.7,81,319.7z"/>
	<polygon class="st16" points="93.7,339.2 93.7,337.3 85.9,333.5 83.1,336.6 	"/>
	<path class="st22" d="M121.6,475.1c0,1.7-1.4,3-3,3c-1.7,0-3-1.4-3-3c0-1.7,1.4-3,3-3C120.3,472.1,121.6,473.4,121.6,475.1z"/>
	<polygon class="st15" points="53,472.1 53.8,474.3 86.4,464.2 84.8,459.8 	"/>
	<polygon class="st15" points="118.6,472.1 117.8,474.3 85.2,464.2 86.6,459.5 	"/>
	<polygon class="st15" points="95.6,474 95.6,476.6 85.2,464.2 86.6,459.5 	"/>
	<path class="st22" d="M95.9,475.1c0,1.7-1.4,3-3,3c-1.7,0-3-1.4-3-3c0-1.7,1.4-3,3-3C94.5,472.1,95.9,473.4,95.9,475.1z"/>
	<circle class="st22" cx="53" cy="475.1" r="3"/>
	<g>
		<path class="st6" d="M480.6,169c0,8.1-2.9,15.5-7.7,21.2c-1.1,1.3-2.4,2.6-3.7,3.7c-0.4,0.3-0.8,0.6-1.2,1c-0.4,0.4-0.9,0.7-1.4,1
			c-4.3,3.1-9.5,5.1-15,5.8c-1,0.1-2,0.2-3,0.2c-0.4,0-0.7,0-1.1,0c-1.1,0-2.1-0.1-3.2-0.1c-1.2-0.1-2.3-0.3-3.4-0.5
			c-5-1-9.6-3.2-13.5-6.2c-1.2-0.9-2.3-1.9-3.3-2.9c-0.2-0.2-0.4-0.4-0.6-0.6c-0.7-0.8-1.4-1.6-2.1-2.5c-4.3-5.6-6.9-12.6-6.9-20.2
			c0-18.2,14.8-33,33-33C465.8,136,480.6,150.8,480.6,169z"/>
		<g>
			<g>
				<path class="st23" d="M469.1,187.2l-2.4,8.7c-4.3,3.1-9.5,5.1-15,5.8c-1,0.1-2,0.2-3,0.2c-0.4,0-0.7,0-1.1,0
					c-1.1,0-2.1-0.1-3.2-0.1c-1.2-0.1-2.3-0.3-3.4-0.5c-5-1-9.6-3.2-13.5-6.2c-0.5-2.9-1-6.1-1.4-9.1c2.4-0.9,10.1-3.5,15-5.2
					c0.1,0,0.1,0,0.2-0.1c0.1,0,0.2-0.1,0.3-0.1c0.3-0.1,0.6-0.2,0.8-0.3c0.3-0.1,0.5-0.2,0.8-0.3c1-0.3,1.7-0.6,2-0.7c0,0,0,0,0,0
					c0.1,0,0.1,0,0.1,0l0.1,0l6.5,0.5l1.1,0.1l0.3,0c0,0,0.1,0,0.1,0c0.4,0.1,1.5,0.4,3.1,0.9c0,0,0,0,0,0
					C460.5,182.2,466.7,184.5,469.1,187.2z"/>
			</g>
			<g>
				<path class="st24" d="M449.3,152.6c0,0,7.9,1.3,6.5,13.6c-1.3,12.3-8.3,11.2-8.7,11.2c-0.5,0-7,0.1-7.3-14.9
					C439.8,162.5,439.7,151.4,449.3,152.6z"/>
			</g>
			<g>
				<path class="st24" d="M452.8,173.8c0,0-0.3,5.1,0.2,6.2c0.5,1.1-6.3,4.6-10.5,0.6c0,0,0.9-5.5,0.6-7.5
					C442.8,171.2,452.8,173.8,452.8,173.8z"/>
			</g>
			<g>
				<path class="st24" d="M456,162.7c0,0,0.9-0.9,1.2,0c0.3,0.9-1.4,5.1-1.3,5.3c0,0-0.2,0.4-0.4,0.2C455.3,168,456,162.7,456,162.7
					z"/>
			</g>
			<g>
				<path class="st24" d="M439.9,162.4c0,0-0.8-0.9-1.2,0c-0.3,0.9,0.9,5.1,1.1,5.3c0,0,0.3,0.4,0.5,0.2
					C440.5,167.7,439.9,162.4,439.9,162.4z"/>
			</g>
			<g>
				<path class="st25" d="M456.5,161.7c-0.3,1.7-0.5,2.9-0.5,2.9l-1.1,1.5c0,0,0.1-3.3-0.1-3.8c-0.1-0.2-0.1-0.5-0.2-0.9
					c-0.1-0.6-0.3-1.3-0.4-1.6c-0.1-0.4-6.7-2.3-12.6,0.4c0,0,0.1,0.5,0,1.1c0,0.7-0.1,1.4-0.4,1.5c-0.6,0.2-0.3,3.9-0.3,3.9
					l-0.9-1.1c0,0-0.3-1.9-0.5-4.1c0,0,0,0,0,0c-0.1-0.5-0.1-1-0.2-1.6c-0.1-2.2,0.1-6.2,3-8.6c1.9-0.8,5-1.5,10.2,0
					c0,0,1.2,0.1,1.5,0.4C457.2,155.3,456.5,161.7,456.5,161.7z"/>
			</g>
			<path class="st26" d="M443.6,175.8c0,0,1.3,1.7,4.2,1.7c2.9-0.1,4.2-1.6,4.2-1.6s-1.4,2.9-4.2,2.9
				C444.9,178.7,443.6,175.8,443.6,175.8z"/>
			<path class="st24" d="M441.7,180.7c0,0,2.1,3.7,6.1,4c2.5,0.2,4.7-3,5.8-4.6C453.5,180.2,447.9,177.7,441.7,180.7z"/>
			<path class="st21" d="M452.8,179c0,0-1.6,2.1-5,4.4l2.1,3.3l3.6-6.5L452.8,179z"/>
			<path class="st21" d="M442.6,179.5c0,0,2,2.6,5.1,3.9l-2.3,3.4l-4.1-5.9L442.6,179.5z"/>
			<path class="st27" d="M447.8,183.4l1.8,2.8c0,0-1.9,1.1-3.7-0.1L447.8,183.4z"/>
			<path class="st12" d="M471.2,186.7c0,0,0,0.1-0.1,0.2c-0.2,0.7-1,3.5-2,7.1c-0.4,0.3-0.8,0.6-1.2,1c-0.4,0.4-0.9,0.7-1.4,1
				c-4.3,3.1-9.5,5.1-15,5.8c0.5-11.4,1.8-21.5,1.8-21.5c1.1,0.3,2.1,0.6,3,0.8c0,0,0,0,0,0c8.4,2.4,12.6,4.5,14.1,5.3c0,0,0,0,0,0
				C471,186.6,471.2,186.7,471.2,186.7z"/>
			<path class="st12" d="M441,201.3c-5-1-9.6-3.2-13.5-6.2c-1.2-0.9-2.3-1.9-3.3-2.9c-0.2-0.2-0.4-0.4-0.6-0.6c-0.6-2.5-1-4.1-1-4.2
				l0,0c0,0,4.1-2.7,18.5-6.5c0,0,0,0,0,0C441.1,181.2,441.2,190.5,441,201.3z"/>
			<path class="st27" d="M448.8,186.4c-0.1,3-0.1,8.8-0.1,15.5c-0.4,0-0.7,0-1.1,0c-1.1,0-2.1-0.1-3.2-0.1
				c0.6-8.2,1.7-13.3,2.2-15.4c0.2-0.7,0.3-1,0.3-1l1.9,0.3C448.8,186,448.8,186.2,448.8,186.4z"/>
			<g>
				<path class="st12" d="M472.9,190.2c-1.1,1.3-2.4,2.6-3.7,3.7c-0.4,0.3-0.8,0.6-1.2,1l2.6-8.6l0,0c0,0,0,0,0,0
					c0.2,0.1,0.3,0.3,0.5,0.5C471.7,187.5,472.3,188.7,472.9,190.2z"/>
			</g>
			<g>
				<path class="st12" d="M424.2,192.2c-0.2-0.2-0.4-0.4-0.6-0.6c-0.7-0.8-1.4-1.6-2.1-2.5c0.4-0.9,0.7-1.5,1.1-1.7l0,0L424.2,192.2
					z"/>
			</g>
		</g>
	</g>
	<path class="st28" d="M248.4,134.3h-37c-2.1,0-3.7-1.7-3.7-3.7v-2.9c0-2.1,1.7-3.7,3.7-3.7h37c2.1,0,3.7,1.7,3.7,3.7v2.9
		C252.1,132.6,250.5,134.3,248.4,134.3z"/>
	<g>
		<g>
			<g>
				<g>
					<path class="st29" d="M226.1,202c2.1,0.7,4.3,1.1,6.6,1.1c7,0.1,13.2-3.2,17.2-8.3c2.7-3.5,4.4-8,4.5-12.8c0-0.5,0-1,0-1.4
						c-0.1-2.1-0.5-4.2-1.2-6.1c-2.9-8.1-10.7-13.9-19.8-14.1c-4.9-0.1-9.5,1.5-13.1,4.3c-5.1,3.8-8.4,9.9-8.5,16.8
						C211.4,191,217.5,199.1,226.1,202z M216.9,181.5c0.1-5.1,2.5-9.6,6.3-12.5c2.7-2.1,6.2-3.3,9.9-3.3c6.8,0.1,12.6,4.5,14.8,10.5
						l0,0c0.5,1.4,0.8,3,0.9,4.6c0,0.4,0,0.7,0,1.1c0,3.6-1.3,6.9-3.3,9.6c-3,3.8-7.6,6.3-12.9,6.2c-1.7,0-3.4-0.3-4.9-0.8
						C221.4,194.7,216.8,188.7,216.9,181.5z"/>
				</g>
			</g>
		</g>
		<g>
			<g>
				<g>
					<path class="st30" d="M245.6,191.5l4.2,3.3c-4,5.1-10.2,8.4-17.2,8.3c-2.3,0-4.5-0.4-6.6-1.1l1.7-5.1c1.5,0.5,3.2,0.8,4.9,0.8
						C237.9,197.8,242.6,195.4,245.6,191.5z"/>
				</g>
			</g>
		</g>
		<g>
			<g>
				<g>
					<path class="st31" d="M248.9,180.9l5.3-0.3c0,0.5,0,1,0,1.4c-0.1,4.8-1.7,9.3-4.5,12.8l-4.2-3.3c2.1-2.7,3.3-6,3.3-9.6
						C248.9,181.6,248.9,181.2,248.9,180.9z"/>
				</g>
			</g>
		</g>
		<g>
			<g>
				<g>
					<path class="st31" d="M248.9,180.9c-0.1-1.6-0.4-3.1-0.9-4.6l0,0l5-1.8c0.7,1.9,1.1,4,1.2,6.1L248.9,180.9z"/>
				</g>
			</g>
		</g>
		<g>
			<g>
				<g>
					<path class="st1" d="M220.1,164.7c3.6-2.8,8.2-4.4,13.1-4.3c9.1,0.1,16.9,6,19.8,14.1l-5,1.8l0,0c-2.2-6.1-8-10.5-14.8-10.5
						c-3.7,0-7.2,1.2-9.9,3.3L220.1,164.7z"/>
				</g>
			</g>
		</g>
	</g>
	<g>
		<g>
			<path class="st29" d="M391.7,244.5h-13.8c-2.7,0-5-2.2-5-5v-13.8c0-2.7,2.2-5,5-5h13.8c2.7,0,5,2.2,5,5v13.8
				C396.7,242.3,394.5,244.5,391.7,244.5z"/>
		</g>
		<g>
			<g>
				<g>
					<path class="st32" d="M384.1,237.8l-6-5.2c-0.5-0.4-0.5-1.2-0.1-1.7c0.4-0.5,1.2-0.5,1.7-0.1l4.3,3.7l6.1-6.8
						c0.4-0.5,1.2-0.5,1.7-0.1c0.5,0.4,0.5,1.2,0.1,1.7L384.1,237.8z"/>
				</g>
			</g>
		</g>
	</g>
	<g>
		<g>
			<path class="st29" d="M391.7,275h-13.8c-2.7,0-5-2.2-5-5v-13.8c0-2.7,2.2-5,5-5h13.8c2.7,0,5,2.2,5,5V270
				C396.7,272.7,394.5,275,391.7,275z"/>
		</g>
		<g>
			<g>
				<g>
					<path class="st32" d="M384.1,268.3l-6-5.2c-0.5-0.4-0.5-1.2-0.1-1.7c0.4-0.5,1.2-0.5,1.7-0.1l4.3,3.7l6.1-6.8
						c0.4-0.5,1.2-0.5,1.7-0.1c0.5,0.4,0.5,1.2,0.1,1.7L384.1,268.3z"/>
				</g>
			</g>
		</g>
	</g>
	<g>
		<g>
			<path class="st29" d="M391.7,305.4h-13.8c-2.7,0-5-2.2-5-5v-13.8c0-2.7,2.2-5,5-5h13.8c2.7,0,5,2.2,5,5v13.8
				C396.7,303.2,394.5,305.4,391.7,305.4z"/>
		</g>
	</g>
	<g>
		<g>
			<g>
				<g>
					<path class="st33" d="M297.6,446.3c0,0,0.7,4.8,1.2,6.9c0.5,2.1,4.9,8,4.8,9c-0.1,1-2,2.2-2.9,1.4c-0.9-0.8-7.2-7.3-8.6-10
						c-1.3-2.8-5.8-6.4-6.2-7.6c-0.5-1.2,5.2-4.8,6.7-5.4C294.1,439.9,297.6,446.3,297.6,446.3z"/>
				</g>
			</g>
		</g>
		<path class="st8" d="M286.5,360.5c0,0,0.6,3.1,1,3.6c0.4,0.6,1.6,3.4,1.7,3.8c0.1,0.4,0.8,3.3,1,3.7c0.1,0.4-0.7,0.9-1.3,0.2
			c-0.3-0.5-1-2.3-1.2-3c-0.2-0.6-1-2.5-1.2-2.2c-0.2,0.3-0.2,2.9-0.2,3.6c0,0.7,0.4,2.7,0.6,3.5s1.3,4.3,0.9,4.5
			c-0.4,0.2-0.8,0.1-1.4-0.8c0,0-0.9,0.5-1.4-0.6c0,0-0.8,0.3-1.3-1.2c0,0-0.6-0.3-0.8-0.9c-0.2-0.5-1.5-5.2-1.5-7
			c0-1.9,0.5-3.2,0.4-4.5c-0.1-1.3-0.8-4.2-0.8-4.2L286.5,360.5z"/>
		<polygon class="st34" points="294.3,439.7 292.6,440.5 297.6,446.3 299.2,444.5 		"/>
		<path class="st33" d="M311.7,451.9c0,0-1.1,2.7-2,3.7c-0.9,1.1-4.5,2.9-4.5,6.1c0,3.4,6,2.5,8.4,2.3c2.4-0.1,2.5-1.9,3.5-3.9
			c1-1.9,2-1.6,2.2-3.2c0.2-1.6-0.8-5-0.8-5L311.7,451.9z"/>
		<path class="st34" d="M311.6,450.9l-0.2,1.6c0,0,3.7,1.3,7.2,0.1l-0.2-2.2L311.6,450.9z"/>
		<path class="st35" d="M332.2,409.9c0-4.2-3.1-40.8-2.9-42.1c0.1-0.9-0.9-9.7-1.6-15.6c0-0.1,0-0.1,0-0.2c0,0,0,0,0,0
			c-0.2-1.7-0.4-3.1-0.5-4.1c-0.1-0.4-0.1-0.8-0.1-1c0-0.2,0-0.3,0-0.3s-19.7-3.9-30-0.2c-0.4,0.2-0.8,0.3-1.2,0.5
			c0,0,0,0.2-0.1,0.5c-0.1,0.8-0.3,2.3-0.6,4.5c0,0.4-0.1,0.7-0.2,1.1c-1.5,11-0.5,23,2,35.3c2.5,12,3.9,21,4.1,22.8
			c0.3,2.3,1.3,8.6,2.5,15.5c-5.4,6.7-10.1,12.4-9.7,13c0.9,1.4,8.5,9.3,8.9,7.9c0,0,1.4-1.6,3.5-4c0.7,4.2,1.2,7.1,1.2,7.1
			s8.4,2,11.4,0.2c0,0-1.2-9.2-2.5-19.2C324.1,422.3,332.2,412.1,332.2,409.9z M313.6,406.9c-0.1-5.6-2.6-37.2-2.3-37.2
			c1.2,0,8.2,30,8.4,34.3c0.1,0.9-1,2.8-2.8,5.3c-0.8,1.1-1.7,2.4-2.7,3.8l0,0C313.9,410,313.6,407.8,313.6,406.9z"/>
		<g>
			<path class="st23" d="M335.5,294.3l-5.3,19c-0.2,0.6-0.4,1.4-0.6,2.3l0,0c0,0,0,0,0,0c-0.9,3.4-2,8.6-2.3,14.3
				c-0.2,3.9,0.5,19.7,0.5,19.7s-8,3-20,2.2c0,0-12.9-0.3-11.9-8.2c2.8-21,0.1-29.6-0.3-31.7c0,0-1.8-10.2-3-18.7
				c3.6-1.4,19.2-6.6,19.2-6.6l8,0.6C319.7,287.2,331.9,290.2,335.5,294.3z"/>
		</g>
		<g>
			<path class="st24" d="M315.7,259.7c0,0,7.9,1.3,6.5,13.6c-1.3,12.3-8.3,11.2-8.7,11.2c-0.5,0-7,0.1-7.3-14.9
				C306.2,269.6,306.1,258.5,315.7,259.7z"/>
		</g>
		<g>
			<path class="st24" d="M319.1,280.9c0,0-0.3,5.1,0.2,6.2c0.5,1.1-6.3,4.6-10.5,0.6c0,0,0.9-5.5,0.6-7.5
				C309.1,278.3,319.1,280.9,319.1,280.9z"/>
		</g>
		<g>
			<path class="st24" d="M322.4,269.8c0,0,0.9-0.9,1.2,0c0.3,0.9-1.4,5.1-1.3,5.3c0,0-0.2,0.4-0.4,0.2
				C321.7,275.1,322.4,269.8,322.4,269.8z"/>
		</g>
		<g>
			<path class="st24" d="M306.2,269.5c0,0-0.8-0.9-1.2,0c-0.3,0.9,0.9,5.1,1.1,5.3c0,0,0.3,0.4,0.5,0.2
				C306.8,274.8,306.2,269.5,306.2,269.5z"/>
		</g>
		<g>
			<path class="st25" d="M322.9,268.8c-0.3,1.7-0.5,2.9-0.5,2.9l-1.1,1.5c0,0,0.1-3.3-0.1-3.8c-0.1-0.2-0.1-0.5-0.2-0.9
				c-0.1-0.6-0.3-1.3-0.4-1.6c-0.1-0.4-6.7-2.3-12.6,0.4c0,0,0,0.5,0,1.1c0,0.7-0.1,1.4-0.4,1.5c-0.6,0.2-0.3,3.9-0.3,3.9l-0.9-1.1
				c0,0-0.3-1.9-0.5-4.1c0,0,0,0,0,0c-0.1-0.5-0.1-1-0.2-1.6c-0.1-2.2,0.1-6.2,3-8.6c1.9-0.8,5-1.5,10.2,0c0,0,1.2,0.1,1.5,0.4
				C323.5,262.4,322.9,268.8,322.9,268.8z"/>
		</g>
		<path class="st26" d="M309.9,282.8c0,0,1.3,1.7,4.2,1.7c2.9-0.1,4.2-1.6,4.2-1.6s-1.4,2.9-4.2,2.9
			C311.3,285.8,309.9,282.8,309.9,282.8z"/>
		<path class="st24" d="M308,287.8c0,0,2.1,3.7,6.1,4c2.5,0.2,4.7-3,5.8-4.6C319.9,287.2,314.2,284.8,308,287.8z"/>
		<path class="st21" d="M319.1,286.1c0,0-1.6,2.1-5,4.4l2.1,3.3l3.6-6.5L319.1,286.1z"/>
		<path class="st21" d="M309,286.6c0,0,2,2.6,5.1,3.9l-2.3,3.4l-4.1-5.9L309,286.6z"/>
		<path class="st27" d="M314.1,290.4l1.8,2.8c0,0-1.9,1.1-3.7-0.1L314.1,290.4z"/>
		<path class="st33" d="M295.3,353.3c0,0,9.9,3.6,32.1,0.2l-0.3-4c0,0-12.9,3.8-31.5,0.5L295.3,353.3z"/>
		<path class="st12" d="M319.9,287.2c0,0-2.3,17.2-2,32.1c0.3,14.9,11.5,41.8,11.5,41.8s4.9-4.7,7-7.4c0,0-7.6-22-7.5-26
			c0.1-4,8.6-34,8.6-34S332.8,290.7,319.9,287.2z"/>
		<path class="st12" d="M307.5,288c0,0,0,16.5-0.3,31.3c-0.3,14.9-2.3,42.5-2.3,42.5s-11-1.7-13.1-4.4c0,0,4.4-25.7,4.3-29.7
			c-0.1-4-7.2-33.2-7.2-33.2S293,291.8,307.5,288z"/>
		<rect x="308.8" y="350.7" class="st36" width="6.1" height="4.5"/>
		<path class="st27" d="M313.2,292.5c0,0-2.7,9.2-2.9,27.6c-0.2,18.3,0.3,23.6,0.3,23.6l2.1,4.2l2.8-4.4c0,0-0.9-42.2-0.4-50.7
			L313.2,292.5z"/>
		<g>
			<g>
				<g>
					<g>
						<g>
							<path class="st8" d="M328.8,361.3c0,0,0.7-0.4,0.8-0.8c0,0,0.3-0.6,0.5-1c0.1-0.1,0.1-0.2,0.2-0.3c0.2-0.3,0.8-0.9,1.1-1.7
								c0.3-0.8,0.5-4.6,0.5-4.6l-2.3-0.7l-2.1-0.9c0,0-4.5,3.5-4.9,4.2c0,0.1-0.1,0.1-0.1,0.2c-0.3,0.6-0.1,1.2-0.2,1.6
								c0,0.1-0.2,1.4,0.1,1.7c0.4,0.4,0.9,0.5,1.3,0.5c0,0,0.9,0.8,1.7,0.8c0,0,0.8,0.7,1.8,0.5
								C327.3,360.9,328.2,361.5,328.8,361.3z"/>
						</g>
					</g>
				</g>
			</g>
		</g>
		<g>
			<path class="st12" d="M325.8,350.9c0,0,3.1,2.8,7.5,4.2c0,0,14.6-23.8,14.8-25.5c0.2-1.6-7.2-33.9-10.6-36l-6.1,17.8
				c0.4-0.1,6.9,13.5,6.9,15.3C338.5,329.1,325.8,350.9,325.8,350.9z"/>
		</g>
		<g>
			<path class="st12" d="M288.2,363.7c0,0-3.3,0.6-8,0.3c0,0,1.8-30.5,1.7-32.2c-0.2-1.6,3.8-35.3,7.1-37.3l6,18
				c-0.4-0.1-4,18.4-4,20.1C290.9,334.9,288.2,363.7,288.2,363.7z"/>
		</g>
		<polygon class="st35" points="322,354.3 331.4,359.2 327.7,366 319.7,357.5 		"/>
		<path class="st33" d="M316.9,409.4l-0.9,18.5l-1.8-14.8v0C315.2,411.8,316.2,410.5,316.9,409.4z"/>
	</g>
	<g>
		<rect x="269.8" y="183.9" class="st29" width="5.5" height="17.9"/>
	</g>
	<path class="st6" d="M471.3,303.4c0,14-11.3,25.4-25.4,25.4c-14,0-25.4-11.4-25.4-25.4c0-14,11.4-25.4,25.4-25.4
		C459.9,278,471.3,289.4,471.3,303.4z"/>
	<g>
		<rect x="260.8" y="188.9" class="st29" width="5.5" height="12.9"/>
	</g>
	<g>
		<rect x="278.7" y="175.6" class="st29" width="5.5" height="26.3"/>
	</g>
	<g>
		<g>
			
				<rect x="506.7" y="376.1" transform="matrix(-1 -1.224647e-16 1.224647e-16 -1 1048.5067 754.1967)" class="st37" width="35.2" height="2.1"/>
		</g>
		<g>
			<rect x="534" y="383.6" class="st13" width="3.1" height="95"/>
		</g>
		<g>
			
				<rect x="487.7" y="375.5" transform="matrix(-1 -1.224647e-16 1.224647e-16 -1 999.8742 753.9077)" class="st38" width="24.5" height="3"/>
		</g>
		<g>
			
				<rect x="495.3" y="350" transform="matrix(-1 -1.224647e-16 1.224647e-16 -1 999.8742 728.1528)" class="st39" width="9.3" height="28.1"/>
		</g>
		<g>
			
				<rect x="419" y="378.2" transform="matrix(-1 -1.224647e-16 1.224647e-16 -1 973.4227 761.7563)" class="st14" width="135.5" height="5.4"/>
		</g>
		<g>
			<path class="st40" d="M580.5,345.5c0,0,1.5,20.8-2.6,23.3c-2.5,1.6-12.7,6.8-12.4,7.8s5.7,8.8,5.7,8.8s19.5-12.8,20.1-16.9
				c0.6-4-1-30.4-3.6-31.7c-2-0.9-3.1-0.2-5.6,1.7C578.6,341.2,580.5,345.5,580.5,345.5z"/>
		</g>
		<g>
			<g>
				<g>
					<path class="st41" d="M556.5,465.6c0,0,0.6,4.2,0.7,4.8c0.1,0.6,6.7-0.4,6.7-0.4l0.5-5C564.5,465.1,557.3,465,556.5,465.6z"/>
				</g>
			</g>
		</g>
		<g>
			<g>
				<g>
					<path class="st35" d="M557.1,469.9c0,0-2.1,2.5-4.2,3.6c-2,1.1-5.3,1.5-6.5,2.7c-0.9,0.8-3.2,4.4,5.3,4.3
						c8.5-0.1,12.6,0.5,13.5-0.9c0.9-1.4-1.3-10.1-1.3-10.1S562,470.3,557.1,469.9z"/>
				</g>
			</g>
		</g>
		<g>
			<g>
				<g>
					<path class="st41" d="M513.8,465.6c0,0,0.6,4.2,0.7,4.8c0.1,0.6,6.7-0.4,6.7-0.4l0.5-5C521.8,465.1,514.6,465,513.8,465.6z"/>
				</g>
			</g>
		</g>
		<g>
			<g>
				<g>
					<path class="st35" d="M514.4,469.9c0,0-2.1,2.5-4.2,3.6c-2,1.1-9.6,2-10.8,3.2c-0.9,0.8-2.3,4.1,9.6,3.8
						c8.5-0.2,12.6,0.5,13.5-0.9c0.9-1.4-1.3-10.1-1.3-10.1S519.4,470.4,514.4,469.9z"/>
				</g>
			</g>
		</g>
		<g>
			<g>
				<g>
					<path class="st35" d="M578,393c0,0-24.2,4.1-29.7,5c-5.5,0.9-35.1,8.2-38.9,10.5c-3,1.8,1.5,44.8,2.6,61.2h11.7l0.8-49.2
						c14,0.4,24-3.3,34.2-1.7s18.7,3.8,25.2-4.9C584,413.7,584.3,394.9,578,393z"/>
				</g>
			</g>
		</g>
		<g>
			<g>
				<g>
					<path class="st35" d="M554.1,469.7l11.4-0.7l1.1-48.6c6,0.2,8.1-0.2,13-0.8l9.2-21.4c-8.1,1.6-33.9,8.1-37.3,10.2
						C548.5,410.2,553.1,453.2,554.1,469.7z"/>
				</g>
			</g>
		</g>
		<g>
			<g>
				<g>
					<path class="st8" d="M566.8,302.1c0,0-8.9-2.5-12.3,4.4c-3.4,6.9-1.9,20,2.6,21.2c4.5,1.2,10.9-0.2,12.8-4.5
						c1.9-4.3,3.3-10.4,2.9-14.3C572.4,305,569.2,303.1,566.8,302.1z"/>
				</g>
			</g>
		</g>
		<g>
			<g>
				<g>
					<path class="st8" d="M559.5,326.4c0,0,0.1,5.2-0.5,6.4c-0.6,1.1,12.4,0.8,12.4,0.8s-2-6.3-0.9-11.7
						C571.7,316.6,559.5,326.4,559.5,326.4z"/>
				</g>
			</g>
		</g>
		<g>
			<g>
				<g>
					<path class="st42" d="M571.2,319.9c0,0-0.7,1.4-4,1.2c-3.4-0.2-7.8-4.3-9.2-4.6c-1.4-0.4-1.5-1.2-1.5-1.2l-0.8,1.3l-1.5,0.2
						c0,0,1-4.1-1.2-5.5c-2.2-1.4,1-12.9,11.9-10.1c0,0,8.3,1.5,8.5,6.2C573.6,312.1,572.8,317.5,571.2,319.9z"/>
				</g>
			</g>
		</g>
		<g>
			<g>
				<g>
					<path class="st37" d="M558.4,332.6c0,0,0-2.1,1-2.3c1-0.2,10.2-1.5,11.4-1l0.5,2.8C571.2,332.1,569,333.5,558.4,332.6z"/>
				</g>
			</g>
		</g>
		<g>
			<g>
				<g>
					<path class="st8" d="M555.7,314.4c0.2-1.8,2.2-3.8,3.4-1c1.1,2.7-0.8,6.7-2,6.5C555.7,319.6,555.4,316.7,555.7,314.4z"/>
				</g>
			</g>
		</g>
		<g>
			<g>
				<g>
					<path class="st12" d="M519.8,357.9C519.8,357.9,519.8,357.9,519.8,357.9C519.7,357.9,519.7,357.9,519.8,357.9z"/>
				</g>
			</g>
		</g>
		<g>
			<g>
				<g>
					<path class="st42" d="M569.4,303.4c0,0,10.8-0.5,1.9,16.4L569.4,303.4z"/>
				</g>
			</g>
		</g>
		<g>
			<g>
				<polygon class="st15" points="593.6,475.4 592.8,477.7 558.7,467.1 560.4,462.6 				"/>
			</g>
		</g>
		<g>
			<g>
				
					<rect x="557.6" y="428.5" transform="matrix(-1 -1.224647e-16 1.224647e-16 -1 1118.9796 894.0433)" class="st15" width="3.9" height="37"/>
			</g>
		</g>
		<g>
			<g>
				
					<rect x="548.1" y="426.6" transform="matrix(-1 -1.224647e-16 1.224647e-16 -1 1118.9796 855.2823)" class="st43" width="22.8" height="2.2"/>
			</g>
		</g>
		<g>
			<g>
				<polygon class="st15" points="525.1,475.4 525.9,477.7 560,467.1 558.5,462.3 				"/>
			</g>
		</g>
		<g>
			<g>
				<polygon class="st15" points="549.1,477.4 549.1,480.1 560,467.1 558.5,462.3 				"/>
			</g>
		</g>
		<g>
			<g>
				<path class="st22" d="M521.9,478.6c0,1.8,1.4,3.2,3.2,3.2c1.8,0,3.2-1.4,3.2-3.2c0-1.8-1.4-3.2-3.2-3.2
					C523.4,475.4,521.9,476.8,521.9,478.6z"/>
			</g>
		</g>
		<g>
			<g>
				<path class="st22" d="M548.8,478.6c0,1.8,1.4,3.2,3.2,3.2s3.2-1.4,3.2-3.2c0-1.8-1.4-3.2-3.2-3.2S548.8,476.8,548.8,478.6z"/>
			</g>
		</g>
		<g>
			<g>
				<path class="st22" d="M590.4,478.6c0,1.8,1.4,3.2,3.2,3.2s3.2-1.4,3.2-3.2c0-1.8-1.4-3.2-3.2-3.2S590.4,476.8,590.4,478.6z"/>
			</g>
		</g>
		<g>
			<path class="st37" d="M536.4,426.6h45.9c2.3,0,4.1-1.8,4.1-4.1v-0.1c0-2.3-1.8-4.1-4.1-4.1h-45.9c-2.3,0-4.1,1.8-4.1,4.1v0.1
				C532.3,424.7,534.1,426.6,536.4,426.6z"/>
		</g>
		<g>
			
				<rect x="436.3" y="383.6" transform="matrix(-1 -1.224647e-16 1.224647e-16 -1 875.665 862.1516)" class="st13" width="3.1" height="95"/>
		</g>
		<g>
			<path class="st44" d="M464,363.6h71.8c2.2,0,4.1-1.8,4.1-4.1v-48.3c0-2.2-1.8-4.1-4.1-4.1H464c-2.2,0-4.1,1.8-4.1,4.1v48.3
				C459.9,361.7,461.8,363.6,464,363.6z"/>
		</g>
		<g>
			
				<rect x="463.1" y="310.2" transform="matrix(-1 -1.224647e-16 1.224647e-16 -1 999.8743 664.9127)" class="st28" width="73.7" height="44.5"/>
		</g>
		<g>
			
				<rect x="463.1" y="310.2" transform="matrix(-1 -1.224647e-16 1.224647e-16 -1 999.8743 623.9271)" class="st45" width="73.7" height="3.5"/>
		</g>
		<g>
			<path class="st45" d="M468.3,352h3.9c1.4,0,2.5-1.1,2.5-2.5v-30.5c0-1.4-1.1-2.5-2.5-2.5h-3.9c-1.4,0-2.5,1.1-2.5,2.5v30.5
				C465.8,350.9,466.9,352,468.3,352z"/>
		</g>
		<g>
			<path class="st45" d="M519.9,319.7h13.5c0.8,0,1.4-0.6,1.4-1.4v-0.6c0-0.8-0.6-1.4-1.4-1.4h-13.5c-0.8,0-1.4,0.6-1.4,1.4v0.6
				C518.5,319.1,519.1,319.7,519.9,319.7z"/>
		</g>
		<g>
			<path class="st45" d="M521.3,352.9h10.6c1.6,0,2.8-1.3,2.8-2.8v-25.4c0-1.6-1.3-2.8-2.8-2.8h-10.6c-1.6,0-2.8,1.3-2.8,2.8v25.4
				C518.5,351.6,519.8,352.9,521.3,352.9z"/>
		</g>
		<g>
			<path class="st46" d="M497.4,358.9c0,1.4,1.2,2.6,2.6,2.6s2.6-1.2,2.6-2.6c0-1.4-1.2-2.6-2.6-2.6S497.4,357.5,497.4,358.9z"/>
		</g>
		<g>
			<path class="st47" d="M483.4,378.3v-1c0,0,1.4-6.2,11.4-6.2c10,0,9.8,7.2,9.8,7.2H483.4z"/>
		</g>
		<g>
			<g>
				<path class="st8" d="M504.7,371.9c0,0-2.2-0.2-3-0.6c-0.8-0.5-5.5-3.7-6.7-3.2c-1.1,0.5-8.5,2.8-8.3,3.9c0.3,1.1,0.9,1,1.5,0.8
					c0.5-0.2,5.9-1.3,6.4-1.1c0,0-5.3,1.9-5.3,3.3c0,1.4,1.1,1.8,1.6,2.3c0.5,0.5,1.1,1.9,2.5,2c1.4,0.1,8-2.2,9.4-2.3
					c1.4-0.1,3.9,0.1,4.1-0.1C507,376.6,504.7,371.9,504.7,371.9z"/>
			</g>
		</g>
		<g>
			<g>
				<g>
					<path class="st40" d="M544.2,335.6c6.9-1.2,14.2-3,14.2-3l12.9-0.5c0,0,11.8,2.6,16.5,4.7c0.4,0.2,0.4,10.5,1.7,13.3l-3.9,8.1
						c0,0-2.2,16.1-2.7,23.3c-0.2,3.3,0.6,31.8,0.6,31.8s-1.2,0.6-9.9,1.5c-8.8,1-30.8-0.3-30.9-1.4c-0.1-1,4.3-38.7,4.4-40.6
						c0.3-3-0.9-16.8-0.9-16.8c-1.7,2.2-5.9,12.3-10.3,17.1c-2.6,2.8-15.4,4.5-17.8,4.6c-5.3,0.2-14.9,1.2-15.1,0.7
						c-0.2-0.3-0.8-8.5-0.2-8.7c0.5-0.2,18.3-1.2,22.9-3.6c1.7-0.9,6.7-11.8,6.7-11.8S540.4,337.3,544.2,335.6z"/>
				</g>
			</g>
		</g>
		<g>
			<path class="st37" d="M569.5,412.5h21.6c4.3,0,7.8-3.5,7.8-7.8v-36c0-4.3-3.5-7.8-7.8-7.8h-21.6c-4.3,0-7.8,3.5-7.8,7.8v36
				C561.7,409,565.2,412.5,569.5,412.5z"/>
		</g>
		<g>
			<path class="st37" d="M568.3,424.5c5.5,0,10-1.8,13.3-5.5c7.5-8.2,6.1-22.7,6.1-23.3c-0.1-1.1-1.1-2-2.3-1.9
				c-1.1,0.1-2,1.1-1.9,2.3c0,0.2,1.2,13.3-5,20.1c-2.5,2.8-5.8,4.1-10.2,4.1c-1.1,0-2.1,0.9-2.1,2.1
				C566.2,423.6,567.2,424.5,568.3,424.5z"/>
		</g>
		<g>
			<path class="st6" d="M501,328.4c0,2.6-0.9,4.9-2.4,6.7c-0.4,0.4-0.7,0.8-1.2,1.2c-0.1,0.1-0.2,0.2-0.4,0.3
				c-0.1,0.1-0.3,0.2-0.4,0.3c-1.4,1-3,1.6-4.7,1.8c-0.3,0-0.6,0.1-0.9,0.1c-0.1,0-0.2,0-0.3,0c-0.3,0-0.7,0-1,0
				c-0.4,0-0.7-0.1-1.1-0.2c-1.6-0.3-3-1-4.3-1.9c-0.4-0.3-0.7-0.6-1-0.9c-0.1-0.1-0.1-0.1-0.2-0.2c-0.2-0.2-0.5-0.5-0.7-0.8
				c-1.4-1.8-2.2-4-2.2-6.4c0-5.8,4.7-10.4,10.4-10.4C496.3,318,501,322.6,501,328.4z"/>
			<g>
				<g>
					<path class="st23" d="M497.4,334.1l-0.8,2.8c-1.4,1-3,1.6-4.7,1.8c-0.3,0-0.6,0.1-0.9,0.1c-0.1,0-0.2,0-0.3,0c-0.3,0-0.7,0-1,0
						c-0.4,0-0.7-0.1-1.1-0.2c-1.6-0.3-3-1-4.3-1.9c-0.1-0.9-0.3-1.9-0.4-2.9c0.8-0.3,3.2-1.1,4.7-1.6c0,0,0,0,0.1,0
						c0,0,0.1,0,0.1,0c0.1,0,0.2-0.1,0.3-0.1c0.1,0,0.2-0.1,0.2-0.1c0.3-0.1,0.5-0.2,0.6-0.2c0,0,0,0,0,0c0,0,0,0,0,0l0,0l2.1,0.2
						l0.3,0l0.1,0c0,0,0,0,0,0c0.1,0,0.5,0.1,1,0.3c0,0,0,0,0,0C494.6,332.6,496.6,333.3,497.4,334.1z"/>
				</g>
				<g>
					<path class="st24" d="M491.1,323.2c0,0,2.5,0.4,2.1,4.3c-0.4,3.9-2.6,3.5-2.8,3.5c-0.1,0-2.2,0-2.3-4.7
						C488.1,326.4,488.1,322.8,491.1,323.2z"/>
				</g>
				<g>
					<path class="st24" d="M492.2,329.9c0,0-0.1,1.6,0.1,1.9c0.2,0.3-2,1.4-3.3,0.2c0,0,0.3-1.7,0.2-2.4
						C489.1,329.1,492.2,329.9,492.2,329.9z"/>
				</g>
				<g>
					<path class="st24" d="M493.2,326.4c0,0,0.3-0.3,0.4,0c0.1,0.3-0.4,1.6-0.4,1.7c0,0-0.1,0.1-0.1,0
						C493,328.1,493.2,326.4,493.2,326.4z"/>
				</g>
				<g>
					<path class="st24" d="M488.2,326.3c0,0-0.3-0.3-0.4,0c-0.1,0.3,0.3,1.6,0.3,1.7c0,0,0.1,0.1,0.2,0.1
						C488.3,328,488.2,326.3,488.2,326.3z"/>
				</g>
				<g>
					<path class="st25" d="M493.4,326.1c-0.1,0.5-0.2,0.9-0.2,0.9l-0.4,0.5c0,0,0-1,0-1.2c0-0.1,0-0.2-0.1-0.3
						c0-0.2-0.1-0.4-0.1-0.5c0-0.1-2.1-0.7-4,0.1c0,0,0,0.2,0,0.3c0,0.2,0,0.4-0.1,0.5c-0.2,0.1-0.1,1.2-0.1,1.2l-0.3-0.3
						c0,0-0.1-0.6-0.2-1.3c0,0,0,0,0,0c0-0.2,0-0.3-0.1-0.5c0-0.7,0-2,0.9-2.7c0.6-0.3,1.6-0.5,3.2,0c0,0,0.4,0,0.5,0.1
						C493.6,324.1,493.4,326.1,493.4,326.1z"/>
				</g>
				<path class="st26" d="M489.3,330.5c0,0,0.4,0.5,1.3,0.5c0.9,0,1.3-0.5,1.3-0.5s-0.4,0.9-1.3,0.9
					C489.7,331.5,489.3,330.5,489.3,330.5z"/>
				<path class="st24" d="M488.7,332.1c0,0,0.7,1.2,1.9,1.3c0.8,0.1,1.5-0.9,1.8-1.4C492.5,331.9,490.7,331.2,488.7,332.1z"/>
				<path class="st21" d="M492.2,331.6c0,0-0.5,0.7-1.6,1.4l0.7,1l1.1-2L492.2,331.6z"/>
				<path class="st21" d="M489,331.7c0,0,0.6,0.8,1.6,1.2l-0.7,1.1l-1.3-1.9L489,331.7z"/>
				<path class="st27" d="M490.6,332.9l0.6,0.9c0,0-0.6,0.3-1.2,0L490.6,332.9z"/>
				<path class="st12" d="M498,334c0,0-0.6,2.3-0.6,2.3c-0.1,0.1-0.2,0.2-0.4,0.3c-0.1,0.1-0.3,0.2-0.4,0.3c-1.4,1-3,1.6-4.7,1.8
					c0.2-3.6,0.6-6.8,0.6-6.8c0.3,0.1,0.7,0.2,1,0.3c0,0,0,0,0,0C494.5,332.5,497.1,333.3,498,334z"/>
				<path class="st12" d="M488.5,338.6c-1.6-0.3-3-1-4.3-1.9c-0.4-0.3-0.7-0.6-1-0.9c-0.1-0.1-0.1-0.1-0.2-0.2
					c-0.2-0.8-0.3-1.3-0.3-1.3v0c0,0,1.3-0.8,5.8-2.1c0,0,0,0,0,0C488.6,332.3,488.6,335.2,488.5,338.6z"/>
				<path class="st27" d="M491,333.9c0,0.9,0,2.8,0,4.9c-0.1,0-0.2,0-0.3,0c-0.3,0-0.7,0-1,0c0.2-2.6,0.5-4.2,0.7-4.9
					c0.1-0.2,0.1-0.3,0.1-0.3l0.6,0.1C491,333.8,491,333.8,491,333.9z"/>
				<g>
					<path class="st12" d="M498.6,335.1c-0.4,0.4-0.7,0.8-1.2,1.2c-0.1,0.1-0.2,0.2-0.4,0.3c0,0,1-2.6,1-2.6
						C498.3,334.1,498.5,334.8,498.6,335.1z"/>
				</g>
				<g>
					<path class="st12" d="M483.2,335.7c-0.1-0.1-0.1-0.1-0.2-0.2c-0.2-0.2-0.5-0.5-0.7-0.8c0.1-0.3,0.2-0.5,0.3-0.5v0L483.2,335.7z
						"/>
				</g>
			</g>
		</g>
	</g>
	<g>
		<path class="st48" d="M445.9,313.5c-0.7,0-1.3-0.6-1.3-1.3v-17.7c0-0.7,0.6-1.3,1.3-1.3c0.7,0,1.3,0.6,1.3,1.3v17.7
			C447.2,312.9,446.6,313.5,445.9,313.5z"/>
	</g>
	<g>
		<path class="st48" d="M454.7,304.7h-17.7c-0.7,0-1.3-0.6-1.3-1.3c0-0.7,0.6-1.3,1.3-1.3h17.7c0.7,0,1.3,0.6,1.3,1.3
			C456,304.1,455.4,304.7,454.7,304.7z"/>
	</g>
</g>
</svg>
